<?xml version="1.0" encoding="UTF-8" standalone="no"?>
<svg
   xmlns:dc="http://purl.org/dc/elements/1.1/"
   xmlns:cc="http://creativecommons.org/ns#"
   xmlns:rdf="http://www.w3.org/1999/02/22-rdf-syntax-ns#"
   xmlns:svg="http://www.w3.org/2000/svg"
   xmlns="http://www.w3.org/2000/svg"
   xmlns:xlink="http://www.w3.org/1999/xlink"
   xmlns:sodipodi="http://sodipodi.sourceforge.net/DTD/sodipodi-0.dtd"
   xmlns:inkscape="http://www.inkscape.org/namespaces/inkscape"
   enable-background="new 0 0 128 128"
   height="90"
   id="Layer_1"
   version="1.1"
   viewBox="0 0 90 90"
   width="90"
   xml:space="preserve"
   sodipodi:docname="instagram.svg"
   inkscape:version="1.0.1 (3bc2e813f5, 2020-09-07)"><metadata
     id="metadata30"><rdf:RDF><cc:Work
         rdf:about=""><dc:format>image/svg+xml</dc:format><dc:type
           rdf:resource="http://purl.org/dc/dcmitype/StillImage" /><dc:title></dc:title></cc:Work></rdf:RDF></metadata><defs
     id="defs28"><radialGradient
       inkscape:collect="always"
       xlink:href="#SVGID_1_"
       id="radialGradient873"
       cx="26.615799"
       cy="115.14597"
       fx="26.615799"
       fy="115.14597"
       r="64"
       gradientUnits="userSpaceOnUse"
       gradientTransform="matrix(1.264941,-0.02252255,0.0233219,1.3098358,-18.842877,-71.039587)" /></defs><sodipodi:namedview
     pagecolor="#ffffff"
     bordercolor="#666666"
     borderopacity="1"
     objecttolerance="10"
     gridtolerance="10"
     guidetolerance="10"
     inkscape:pageopacity="0"
     inkscape:pageshadow="2"
     inkscape:window-width="1920"
     inkscape:window-height="1017"
     id="namedview26"
     showgrid="false"
     inkscape:zoom="2.9414063"
     inkscape:cx="-8.5185794"
     inkscape:cy="80.601864"
     inkscape:window-x="-8"
     inkscape:window-y="-8"
     inkscape:window-maximized="1"
     inkscape:current-layer="Layer_1" /><g
     id="g9"><linearGradient
       gradientTransform="matrix(1,0,0,-1,594,633)"
       gradientUnits="userSpaceOnUse"
       id="SVGID_1_"
       x1="-561.27185"
       x2="-493.28751"
       y1="514.18945"
       y2="621.42963"><stop
         offset="0"
         style="stop-color:#FFB900"
         id="stop2" /><stop
         offset="1"
         style="stop-color:#9100EB"
         id="stop4" /></linearGradient><circle
       cx="45"
       cy="45"
       fill="url(#SVGID_1_)"
       id="circle7"
       style="opacity:1;fill:url(#radialGradient873);fill-opacity:1;fill-rule:nonzero;stroke-width:0.703125"
       r="45" /></g><g
     id="g23"
     transform="scale(0.703125)"><g
       id="g13"><path
         d="M 82.333,104 H 45.667 C 33.72,104 24,94.281 24,82.333 V 45.667 C 24,33.719 33.72,24 45.667,24 H 82.333 C 94.281,24 104,33.719 104,45.667 V 82.334 C 104,94.281 94.281,104 82.333,104 Z M 45.667,30.667 c -8.271,0 -15,6.729 -15,15 v 36.667 c 0,8.271 6.729,15 15,15 h 36.666 c 8.271,0 15,-6.729 15,-15 V 45.667 c 0,-8.271 -6.729,-15 -15,-15 z"
         fill="#ffffff"
         id="path11" /></g><g
       id="g17"><path
         d="M 64,84 C 52.972,84 44,75.027 44,64 44,52.971 52.972,44 64,44 c 11.028,0 20,8.971 20,20 0,11.027 -8.972,20 -20,20 z m 0,-33.333 c -7.352,0 -13.333,5.981 -13.333,13.333 0,7.353 5.981,13.333 13.333,13.333 7.352,0 13.333,-5.98 13.333,-13.333 0,-7.352 -5.98,-13.333 -13.333,-13.333 z"
         fill="#ffffff"
         id="path15" /></g><g
       id="g21"><circle
         cx="85.25"
         cy="42.75"
         fill="#ffffff"
         r="4.5830002"
         id="circle19" /></g></g></svg>
