<?xml version="1.0" encoding="UTF-8" standalone="no"?>
<svg
   xmlns:dc="http://purl.org/dc/elements/1.1/"
   xmlns:cc="http://creativecommons.org/ns#"
   xmlns:rdf="http://www.w3.org/1999/02/22-rdf-syntax-ns#"
   xmlns:svg="http://www.w3.org/2000/svg"
   xmlns="http://www.w3.org/2000/svg"
   xmlns:sodipodi="http://sodipodi.sourceforge.net/DTD/sodipodi-0.dtd"
   xmlns:inkscape="http://www.inkscape.org/namespaces/inkscape"
   width="256"
   height="256"
   viewBox="0 0 67.733332 67.733335"
   version="1.1"
   id="svg8"
   inkscape:version="1.0.1 (3bc2e813f5, 2020-09-07)"
   sodipodi:docname="logo-da.svg">
  <defs
     id="defs2" />
  <sodipodi:namedview
     id="base"
     pagecolor="#ffffff"
     bordercolor="#666666"
     borderopacity="1.0"
     inkscape:pageopacity="0.0"
     inkscape:pageshadow="2"
     inkscape:zoom="1.6731746"
     inkscape:cx="67.661223"
     inkscape:cy="145.26653"
     inkscape:document-units="mm"
     inkscape:current-layer="layer1"
     inkscape:document-rotation="0"
     showgrid="true"
     inkscape:window-width="1920"
     inkscape:window-height="1017"
     inkscape:window-x="-8"
     inkscape:window-y="-8"
     inkscape:window-maximized="1"
     units="px">
    <inkscape:grid
       type="xygrid"
       id="grid833" />
  </sodipodi:namedview>
  <metadata
     id="metadata5">
    <rdf:RDF>
      <cc:Work
         rdf:about="">
        <dc:format>image/svg+xml</dc:format>
        <dc:type
           rdf:resource="http://purl.org/dc/dcmitype/StillImage" />
        <dc:title></dc:title>
      </cc:Work>
    </rdf:RDF>
  </metadata>
  <g
     inkscape:label="Capa 1"
     inkscape:groupmode="layer"
     id="layer1">
    <path
       id="rect857"
       style="fill:#000000;fill-opacity:1;stroke-width:5.52357;stroke-linecap:round;stroke-linejoin:round;paint-order:stroke markers fill"
       d="M 33.592956,6.212647e-4 C 27.585387,0.03792126 21.599126,1.6327773 16.41881,4.7554553 13.148614,6.7267293 7.4308075,11.582098 7.4308075,12.387944 c 0,0.292394 4.8635895,0.508719 11.4811375,0.510492 6.314627,0.0017 12.403818,0.257672 13.531163,0.569699 7.591121,2.10107 4.658344,14.296512 -4.570176,19.004226 -2.902725,1.480769 -6.60943,2.325274 -6.60943,1.505591 0,-0.299731 1.369408,-4.328039 3.043174,-8.951764 1.673746,-4.623747 3.474574,-8.871943 3.474574,-9.151188 0,0 -7.9375,0 -8.437046,0.05287 l -3.724016,10.476778 c -2.048117,5.762227 -3.731622,10.822503 -3.74239,11.245713 -0.03513,1.382776 12.645572,0.500488 17.629105,-1.22668 C 37.020354,33.819728 41.845558,29.637429 44.828776,23.14359 47.992175,16.257508 45.121361,9.9321663 37.928643,7.9410713 36.82773,7.6363193 31.817828,7.3742483 26.796571,7.3584303 l -9.129583,-0.02896 2.632537,-1.36452 c 6.521807,-3.383165 16.970063,-3.964973 23.92622,-1.331133 12.356723,4.678724 20.693163,16.4764027 20.740404,29.3528127 0.0083,2.423663 0.111882,2.61919 1.391908,2.61919 1.316206,0 1.383754,-0.153597 1.374615,-3.170613 C 67.69587,21.279732 60.079546,9.1304523 49.004524,3.5589973 44.210792,1.1474453 38.893772,-0.03217774 33.592956,6.672647e-4 Z M 6.8861483,15.100832 c -1.4577667,0 -1.8392726,0.372715 -3.2431181,3.170591 C 0.53046582,24.474681 -0.04123434,26.96593 0.0022241,34.12442 0.03756338,39.954963 0.22567735,41.232808 1.5875769,44.876897 7.9861673,61.997984 25.107914,71.078231 42.542045,66.596138 53.74271,63.716587 62.76424,54.879488 66.40235,43.222672 c 1.587754,-5.087326 1.741146,-4.962677 -6.120957,-4.962677 h -6.906616 l 2.417474,-6.754765 c 1.329549,-3.715115 2.596778,-7.189 2.816254,-7.719707 0.364335,-0.880975 -0.08051,-0.964964 -5.10405,-0.964964 h -5.50174 l -6.391125,7.631406 -6.391126,7.632489 -6.063699,0.345704 c -8.00416,0.45639 -13.953606,2.281362 -17.458359,5.355753 -2.6733776,2.345156 -4.0269759,5.209244 -3.4430429,7.285721 0.1932301,0.687137 -0.4131549,0.0083 -1.3476018,-1.507758 -5.6034404,-9.092834 -5.6025877,-22.195178 0.00107,-31.329068 0.8961374,-1.4607 1.628583,-2.763406 1.628583,-2.89489 0,-0.131512 -0.7426937,-0.239084 -1.651274,-0.239084 z M 48.70192,28.474647 c 0.109586,0.10921 -0.620617,2.293512 -1.622091,4.853889 -1.793052,4.584086 -1.852254,4.658467 -3.859114,4.826985 -1.120905,0.0942 -2.038144,0.03584 -2.038144,-0.12921 0,-0.491443 7.30255,-9.767696 7.519349,-9.551641 z M 30.256905,42.119848 h 1.744221 l -2.187292,2.234721 c -4.343402,4.437951 -9.837866,6.984095 -11.295274,5.234064 -1.021193,-1.226283 0.196787,-3.869482 2.395872,-5.19853 1.878666,-1.135483 6.54939,-2.270255 9.342473,-2.270255 z m 10.478266,0 c 2.952101,0 3.289145,0.110245 2.946998,0.964964 -1.443437,3.606221 -3.606219,9.677101 -3.606219,10.12459 0,0.314569 1.641478,0.470624 3.953114,0.375862 l 3.953134,-0.161515 1.99492,-5.65194 1.994938,-5.650856 5.924277,-0.0011 h 5.923209 l -0.751068,2.12164 C 59.562801,54.143548 50.83348,61.887931 40.629251,64.149287 36.491271,65.066295 28.585962,64.797075 24.859998,63.612953 20.631697,62.26919 19.513134,61.706721 15.453763,58.883961 12.430791,56.781869 9.0340273,53.699435 9.7402188,53.699435 c 0.158516,0 1.1001012,0.40337 2.0932722,0.897126 2.517167,1.25144 7.834771,0.761434 11.909074,-1.097447 3.741187,-1.70689 9.508788,-6.155325 11.930696,-9.202706 1.671486,-2.103195 1.842299,-2.176555 5.06191,-2.176555 z"
       sodipodi:nodetypes="ccscscscccccccscccccscsccccccsssccsscccccscsscccccsccsccccsscscccccccsssscscss" />
  </g>
</svg>
