<?xml version="1.0" encoding="UTF-8" standalone="no"?>
<svg
   xmlns:dc="http://purl.org/dc/elements/1.1/"
   xmlns:cc="http://creativecommons.org/ns#"
   xmlns:rdf="http://www.w3.org/1999/02/22-rdf-syntax-ns#"
   xmlns:svg="http://www.w3.org/2000/svg"
   xmlns="http://www.w3.org/2000/svg"
   xmlns:sodipodi="http://sodipodi.sourceforge.net/DTD/sodipodi-0.dtd"
   xmlns:inkscape="http://www.inkscape.org/namespaces/inkscape"
   version="1.1"
   id="Layer_1"
   x="0px"
   y="0px"
   viewBox="0 0 90 90"
   xml:space="preserve"
   sodipodi:docname="telegram.svg"
   width="90"
   height="90"
   inkscape:version="1.0.1 (3bc2e813f5, 2020-09-07)"><metadata
   id="metadata89"><rdf:RDF><cc:Work
       rdf:about=""><dc:format>image/svg+xml</dc:format><dc:type
         rdf:resource="http://purl.org/dc/dcmitype/StillImage" /><dc:title /></cc:Work></rdf:RDF></metadata><defs
   id="defs87" /><sodipodi:namedview
   pagecolor="#ffffff"
   bordercolor="#666666"
   borderopacity="1"
   objecttolerance="10"
   gridtolerance="10"
   guidetolerance="10"
   inkscape:pageopacity="0"
   inkscape:pageshadow="2"
   inkscape:window-width="1920"
   inkscape:window-height="1017"
   id="namedview85"
   showgrid="true"
   fit-margin-top="0"
   fit-margin-left="0"
   fit-margin-right="0"
   fit-margin-bottom="0"
   inkscape:zoom="5.7421875"
   inkscape:cx="55.781748"
   inkscape:cy="46.28443"
   inkscape:window-x="-8"
   inkscape:window-y="-8"
   inkscape:window-maximized="1"
   inkscape:current-layer="Layer_1"
   inkscape:document-rotation="0"><inkscape:grid
     type="xygrid"
     id="grid914" /></sodipodi:namedview>
<circle
   style="fill:#5650f7;fill-opacity:1;stroke-width:0.175781"
   cx="45"
   cy="45"
   id="circle2"
   r="45" />
<path
   style="fill:#353299;fill-opacity:1;stroke-width:0.175781"
   d="M 89.986641,43.958848 70.010684,24.016113 37.472168,63.677637 60.900996,87.106465 C 77.905723,80.681484 90,64.254199 90,45 90,44.651777 89.9946,44.304785 89.98664,43.958848 Z"
   id="path4" />
<path
   style="fill:#ffffff;stroke-width:0.175781"
   d="m 67.450254,23.470313 c 1.794023,-0.699961 3.648516,0.869765 3.25459,2.754492 l -8.045508,38.457597 c -0.37582,1.802989 -2.493984,2.615098 -3.978809,1.5242 l -12.145429,-8.915098 -6.19084,6.321269 c -1.08791,1.10918 -2.963672,0.657598 -3.430371,-0.82125 L 32.447285,48.612656 20.474473,45.076289 c -1.572715,-0.463711 -1.663594,-2.651484 -0.139395,-3.248437 z m -5.906074,8.5333 c 0.524179,-0.463711 -0.0849,-1.281797 -0.678868,-0.912129 l -25.84248,16.027207 c -0.45457,0.281778 -0.663574,0.836368 -0.503086,1.348418 l 3.524238,15.475782 c 0.06979,0.236425 0.409043,0.203027 0.439453,-0.04236 L 39.271289,52.10666 c 0.03023,-0.290918 0.169629,-0.557578 0.387949,-0.751465 z"
   id="path6" />
<path
   style="fill:#9ec2e5;stroke-width:0.175781"
   d="m 60.865488,31.091484 c 0.593965,-0.369668 1.203047,0.448418 0.678867,0.912129 L 39.65959,51.355195 c -0.218145,0.193887 -0.357539,0.460547 -0.387949,0.751465 l -0.787852,11.793867 c -0.03023,0.245391 -0.369668,0.278789 -0.439453,0.04236 L 34.520098,48.467109 c -0.160664,-0.51205 0.04852,-1.06664 0.503086,-1.348418 z"
   id="path8" />
<path
   style="fill:#ffffff;stroke-width:0.175781"
   d="m 38.171602,64.103555 c -0.569707,-0.203028 -1.051524,-0.657598 -1.25754,-1.312207 L 32.447461,48.61248 20.474648,45.076113 c -1.572714,-0.463711 -1.663593,-2.651484 -0.139394,-3.248437 l 47.115,-18.357363 c 1.157519,-0.451583 2.342461,0.04236 2.927285,0.957656 -0.10916,-0.166641 -0.239414,-0.321153 -0.384785,-0.457559 L 38.029043,50.064258 v 1.142402 l -0.175781,-0.127265 0.175781,7.194023 v 5.769668 c 0.04553,0.02127 0.09387,0.03937 0.142383,0.05449 v 0.006 z"
   id="path10" />

<g
   id="g26"
   transform="scale(0.17578125)">
	<path
   style="fill:#dadde0"
   d="m 228.6,362.73 c -0.31,0.259 -0.621,0.5 -0.948,0.724 v -0.017 c 0.328,-0.224 0.638,-0.448 0.948,-0.707 z"
   id="path18" />
	<path
   style="fill:#dadde0"
   d="m 227.652,363.437 v 0.017 c 0,0 0,-0.017 -0.017,0 0,0 0,0 0.017,-0.017 z"
   id="path20" />
	<path
   style="fill:#dadde0"
   d="m 225.601,364.541 c 0.707,-0.293 1.379,-0.655 2.034,-1.086 -0.655,0.43 -1.345,0.792 -2.034,1.086 z"
   id="path22" />
	<path
   style="fill:#dadde0"
   d="m 219.981,365.316 c 1.517,0.155 3.051,0.034 4.551,-0.414 -1.086,0.345 -2.207,0.5 -3.327,0.5 -0.345,0 -0.69,-0.017 -1.017,-0.052 -0.069,10e-4 -0.138,10e-4 -0.207,-0.034 z"
   id="path24" />
</g>
<g
   id="g32"
   transform="scale(0.17578125)">
	<path
   style="fill:#ffffff"
   d="m 221.205,365.402 c -0.345,0 -0.69,-0.017 -1.017,-0.052 0.327,0.035 0.672,0.052 1.017,0.052 z"
   id="path28" />
	<path
   style="fill:#ffffff"
   d="m 219.981,365.316 c 0.069,0.034 0.138,0.034 0.207,0.034 -0.362,-0.017 -0.69,-0.069 -1.034,-0.138 0.275,0.053 0.551,0.087 0.827,0.104 z"
   id="path30" />
</g>
<g
   id="g38"
   transform="scale(0.17578125)">
	<path
   style="fill:#dadde0"
   d="m 219.981,365.316 c -0.276,-0.017 -0.552,-0.052 -0.827,-0.103 -0.121,-0.017 -0.241,-0.034 -0.345,-0.069 0.379,0.069 0.775,0.138 1.172,0.172 z"
   id="path34" />
	<path
   style="fill:#dadde0"
   d="m 217.516,364.782 c 0.379,0.121 0.759,0.224 1.138,0.328 -0.155,-0.034 -0.31,-0.069 -0.465,-0.103 -0.069,-0.017 -0.138,-0.034 -0.19,-0.069 -0.156,-0.035 -0.328,-0.087 -0.483,-0.156 z"
   id="path36" />
</g>
<g
   id="g44"
   transform="scale(0.17578125)">
	<path
   style="fill:#ffffff"
   d="m 218.188,365.006 c 0.155,0.034 0.31,0.069 0.465,0.103 -0.155,-0.017 -0.31,-0.051 -0.465,-0.103 z"
   id="path40" />
	<path
   style="fill:#ffffff"
   d="m 217.516,364.782 c 0.155,0.069 0.328,0.121 0.483,0.155 -0.259,-0.052 -0.517,-0.138 -0.776,-0.241 0.103,0.034 0.189,0.069 0.293,0.086 z"
   id="path42" />
</g>
<path
   style="fill:#dadde0;stroke-width:0.175781"
   d="m 38.235234,64.121836 c -0.0181,-0.003 -0.0334,-0.0091 -0.0515,-0.01512 -0.003,0.003 -0.0091,0 -0.01213,-0.003 v -0.006 c 0.02109,0.01195 0.04236,0.01793 0.06363,0.02408 z"
   id="path46" />
<path
   style="fill:#d1d1d1;stroke-width:0.175781"
   d="m 38.029043,58.273418 0.142383,5.82416 c -0.04852,-0.01512 -0.09703,-0.0334 -0.142383,-0.05449 z"
   id="path48" />
<polygon
   style="fill:#dadde0"
   points="216.343,291.309 216.343,331.511 215.343,290.585 "
   id="polygon50"
   transform="scale(0.17578125)" />
<path
   style="fill:#5650f7;stroke-width:0.175781;fill-opacity:0.13333334"
   d="M 61.54418,32.003613 39.659414,51.355195 c -0.218144,0.193887 -0.357539,0.460547 -0.387949,0.751465 L 38.48502,63.901582 c -0.03023,0.245391 -0.369668,0.278789 -0.442442,0.04236 l -3.522656,-15.47666 c -0.160664,-0.512051 0.04852,-1.06664 0.503086,-1.348418 L 60.865488,31.09166 c 0.593965,-0.369844 1.203047,0.448418 0.678692,0.911953 z"
   id="path52" />
<g
   id="g54">
</g>
<g
   id="g56">
</g>
<g
   id="g58">
</g>
<g
   id="g60">
</g>
<g
   id="g62">
</g>
<g
   id="g64">
</g>
<g
   id="g66">
</g>
<g
   id="g68">
</g>
<g
   id="g70">
</g>
<g
   id="g72">
</g>
<g
   id="g74">
</g>
<g
   id="g76">
</g>
<g
   id="g78">
</g>
<g
   id="g80">
</g>
<g
   id="g82">
</g>
<g
   id="g16"
   transform="scale(0.17578125)"
   style="fill:#d2d0f7;fill-opacity:1">
	
	<path
   style="fill:#d2d0f7;fill-opacity:1"
   d="m 264.733,325.925 -35.219,35.961 c -0.293,0.293 -0.603,0.586 -0.914,0.845 -0.31,0.259 -0.621,0.483 -0.948,0.707 -0.017,0.017 -0.017,0.017 -0.017,0.017 -0.655,0.431 -1.327,0.793 -2.034,1.086 -0.362,0.138 -0.707,0.276 -1.069,0.362 -1.5,0.448 -3.034,0.569 -4.551,0.414 -0.396,-0.034 -0.793,-0.103 -1.172,-0.172 -0.052,0 -0.103,-0.017 -0.155,-0.034 -0.379,-0.103 -0.759,-0.207 -1.138,-0.328 -0.121,-0.034 -0.241,-0.069 -0.362,-0.138 l -0.81,-33.133 V 291.31 Z"
   id="path14" />
<path
   style="fill:#d2d0f7;fill-opacity:1"
   d="m 402.525,145.518 c 0.052,1.172 -0.034,2.413 -0.293,3.672 l -45.77,218.781 c -2.138,10.257 -14.188,14.877 -22.635,8.671 l -69.094,-50.717 -48.39,-34.616 V 284.81 L 398.181,136.364 c 0.827,0.776 1.569,1.655 2.189,2.603 0.121,0.207 0.241,0.396 0.362,0.586 0.103,0.207 0.224,0.414 0.328,0.603 0.103,0.207 0.207,0.414 0.293,0.621 0.103,0.224 0.19,0.431 0.276,0.655 0.069,0.19 0.155,0.396 0.224,0.621 0.224,0.672 0.396,1.362 0.517,2.086 0.069,0.448 0.121,0.897 0.155,1.379 z"
   id="path12" /></g></svg>
