<?xml version="1.0" encoding="UTF-8" standalone="no"?>
<svg
   xmlns:dc="http://purl.org/dc/elements/1.1/"
   xmlns:cc="http://creativecommons.org/ns#"
   xmlns:rdf="http://www.w3.org/1999/02/22-rdf-syntax-ns#"
   xmlns:svg="http://www.w3.org/2000/svg"
   xmlns="http://www.w3.org/2000/svg"
   xmlns:sodipodi="http://sodipodi.sourceforge.net/DTD/sodipodi-0.dtd"
   xmlns:inkscape="http://www.inkscape.org/namespaces/inkscape"
   version="1.1"
   id="Capa_1"
   x="0px"
   y="0px"
   viewBox="0 0 90.000002 90.000002"
   xml:space="preserve"
   sodipodi:docname="wp.svg"
   width="90"
   height="90"
   inkscape:version="1.0.1 (3bc2e813f5, 2020-09-07)"><metadata
   id="metadata47"><rdf:RDF><cc:Work
       rdf:about=""><dc:format>image/svg+xml</dc:format><dc:type
         rdf:resource="http://purl.org/dc/dcmitype/StillImage" /><dc:title></dc:title></cc:Work></rdf:RDF></metadata><defs
   id="defs45">
	
	
</defs><sodipodi:namedview
   pagecolor="#ffffff"
   bordercolor="#666666"
   borderopacity="1"
   objecttolerance="10"
   gridtolerance="10"
   guidetolerance="10"
   inkscape:pageopacity="0"
   inkscape:pageshadow="2"
   inkscape:window-width="1920"
   inkscape:window-height="1017"
   id="namedview43"
   showgrid="true"
   fit-margin-top="0"
   fit-margin-left="0"
   fit-margin-right="0"
   fit-margin-bottom="0"
   inkscape:zoom="6.4511742"
   inkscape:cx="48.014743"
   inkscape:cy="37.86653"
   inkscape:window-x="-8"
   inkscape:window-y="-8"
   inkscape:window-maximized="1"
   inkscape:current-layer="Capa_1"><inkscape:grid
     type="xygrid"
     id="grid876" /></sodipodi:namedview>
<rect
   style="fill:#1bd741;stroke:none;stroke-width:5;stroke-linecap:round;stroke-linejoin:round;paint-order:stroke fill markers;fill-opacity:1"
   id="rect878"
   width="90"
   height="90"
   x="0"
   y="0"
   ry="45" /><g
   id="g8"
   transform="scale(0.19748493)">
		<path
   style="fill:#ffffff"
   d="M 68.494,387.41 90.817,308.126 C 76.462,283.739 68.904,255.992 68.904,227.488 c 0,-87.765 71.402,-159.167 159.167,-159.167 87.765,0 159.166,71.402 159.166,159.167 0,87.765 -71.401,159.167 -159.166,159.167 -27.347,0 -54.125,-7 -77.814,-20.292 z m 85.943,-50.004 4.872,2.975 c 20.654,12.609 44.432,19.274 68.762,19.274 72.877,0 132.166,-59.29 132.166,-132.167 0,-72.877 -59.289,-132.167 -132.166,-132.167 -72.877,0 -132.167,59.29 -132.167,132.167 0,25.393 7.217,50.052 20.869,71.311 l 3.281,5.109 -12.855,45.658 z"
   id="path4" />
		<path
   style="fill:#ffffff"
   d="m 183.359,153.407 -10.328,-0.563 c -3.244,-0.177 -6.426,0.907 -8.878,3.037 -5.007,4.348 -13.013,12.754 -15.472,23.708 -3.667,16.333 2,36.333 16.667,56.333 14.667,20 42,52 90.333,65.667 15.575,4.404 27.827,1.435 37.28,-4.612 7.487,-4.789 12.648,-12.476 14.508,-21.166 l 1.649,-7.702 c 0.524,-2.448 -0.719,-4.932 -2.993,-5.98 L 271.22,246.04 c -2.266,-1.044 -4.953,-0.384 -6.477,1.591 l -13.703,17.764 c -1.035,1.342 -2.807,1.874 -4.407,1.312 -9.384,-3.298 -40.818,-16.463 -58.066,-49.687 -0.748,-1.441 -0.562,-3.19 0.499,-4.419 l 13.096,-15.15 c 1.338,-1.547 1.676,-3.722 0.872,-5.602 l -15.046,-35.201 c -0.801,-1.874 -2.596,-3.13 -4.629,-3.241 z"
   id="path6" />
	</g>
<g
   id="g12"
   transform="translate(-58.283962,-4.9603372)">
</g>
<g
   id="g14"
   transform="translate(-58.283962,-4.9603372)">
</g>
<g
   id="g16"
   transform="translate(-58.283962,-4.9603372)">
</g>
<g
   id="g18"
   transform="translate(-58.283962,-4.9603372)">
</g>
<g
   id="g20"
   transform="translate(-58.283962,-4.9603372)">
</g>
<g
   id="g22"
   transform="translate(-58.283962,-4.9603372)">
</g>
<g
   id="g24"
   transform="translate(-58.283962,-4.9603372)">
</g>
<g
   id="g26"
   transform="translate(-58.283962,-4.9603372)">
</g>
<g
   id="g28"
   transform="translate(-58.283962,-4.9603372)">
</g>
<g
   id="g30"
   transform="translate(-58.283962,-4.9603372)">
</g>
<g
   id="g32"
   transform="translate(-58.283962,-4.9603372)">
</g>
<g
   id="g34"
   transform="translate(-58.283962,-4.9603372)">
</g>
<g
   id="g36"
   transform="translate(-58.283962,-4.9603372)">
</g>
<g
   id="g38"
   transform="translate(-58.283962,-4.9603372)">
</g>
<g
   id="g40"
   transform="translate(-58.283962,-4.9603372)">
</g>
</svg>
